<?xml version="1.0" encoding="UTF-8"?>
<svg id="Layer_2" data-name="Layer 2" xmlns="http://www.w3.org/2000/svg" viewBox="0 0 96 96">
  <defs>
    <style>
      .cls-1 {
        fill: #fff;
      }

      .cls-2 {
        fill: #f7acbe;
      }
    </style>
  </defs>
  <g id="Layer_1-2" data-name="Layer 1">
    <g>
      <rect class="cls-1" width="96" height="96"/>
      <path class="cls-2" d="M75.65,62.4c0-.75-.02-1.5-.09-2.25-.19-2.1-.69-4.18-1.54-6.11s-2.25-3.76-3.58-5.49c-1.33-1.72-2.94-3.22-4.73-4.45-.2-.14-.4-.27-.6-.39-2.09-1.33-4.98-2.74-8.57-4.15-6.05-2.39-10.14-5.11-12.3-8.16-1.56-2.1-2.06-4.11-1.54-6.02,.2-.6,.6-1.06,1.2-1.38,2.01-.99,3.83-.52,5.47,1.43,.48,.53,1.32,1.91,2.48,4.1,1.59,3.01,3.13,5.25,4.62,6.65,1.5,1.4,3.53,2.46,6.03,3.23,2.65,.81,4.86,1.07,6.57,.7,3.12-.7,5.12-2.79,5.96-6.24,.28-1,.3-2.35,.03-4.07-.26-1.71-.72-3.19-1.38-4.44-1.53-3.37-4.18-6.59-7.91-9.68-3.72-3.09-7.71-5.66-11.47-6.79-3.88-1.17-7.84-1.53-10.97-1.56-3.67-.04-6.85,.64-9.49,1.85-2.91,1.32-5.19,3.25-6.66,5.88-2.1,3.81-2.87,8.21-2.33,13.21,.55,5.01,2.32,9.73,5.38,14.13,1.04,1.58,2.23,3.02,3.58,4.31,1.34,1.3,3.63,3.45,6.91,6.16,3.65,3.04,5.97,5.23,6.58,6.65,.69,1.58,1.11,3.38,1.25,5.36,.16,2.22-.15,3.78-.89,4.63-.41,.43-.81,.62-1.22,.57-.95-.12-2.6-2.35-4.78-6.65-2.11-4.17-3.59-7.09-4.52-8.6s-1.9-2.61-2.88-3.3c-1.38-.97-3.1-1.32-5.13-1.02-2.04,.3-3.72,1.15-4.97,2.55-1.53,1.72-2.65,3.84-3.24,6.18-.4,1.59-.57,3.42-.57,5.4s.09,3.63,.28,4.69c2.1,10.01,7.72,16.47,17.32,19.26,3.27,.89,6.27,1.3,8.99,1.22,6.45-.19,12.22-2.07,17.21-5.58,4.98-3.51,8.41-8.12,10.16-13.77,.16-.51,.3-1.02,.42-1.53,.55-2.15,.89-4.32,.92-6.53Z"/>
    </g>
  </g>
</svg>